<svg xmlns="http://www.w3.org/2000/svg" viewBox="0 0 512 512">
  <defs>
    <linearGradient id="yummyBg" x1="0%" y1="0%" x2="100%" y2="100%">
      <stop offset="0%" stop-color="#FF9B6E"/>
      <stop offset="45%" stop-color="#FF6B35"/>
      <stop offset="100%" stop-color="#C94E20"/>
    </linearGradient>
  </defs>
  <rect width="512" height="512" rx="112" fill="url(#yummyBg)"/>
  <path fill="#FFFFFF" d="M80 418V356c0-81 20-146 65-181 15-45 40-67 67-57 10-30 28-42 44-42 16 0 34 12 44 42 27-10 52 12 67 57 45 35 65 100 65 181v62H80z"/>
  <g fill="none" stroke="#E85A28" stroke-width="9" stroke-linecap="round" opacity="0.4">
    <path d="M220 108v268"/>
    <path d="M256 86v298"/>
    <path d="M292 108v268"/>
  </g>
  <path fill="none" stroke="#F5C4A8" stroke-width="5" stroke-linecap="round" opacity="0.5" d="M108 352h296"/>
</svg>
